<svg width="40" height="40" viewBox="0 0 40 40" fill="none" xmlns="http://www.w3.org/2000/svg">
<rect width="40" height="40" rx="20" fill="#FFD11A"/>
<path fill-rule="evenodd" clip-rule="evenodd" d="M16.875 13.125L26.25 13.125C26.4158 13.125 26.5747 13.1908 26.6919 13.3081C26.8092 13.4253 26.875 13.5842 26.875 13.75V23.125C26.875 23.4702 26.5952 23.75 26.25 23.75C25.9048 23.75 25.625 23.4702 25.625 23.125V15.2589L14.1919 26.6919C13.9479 26.936 13.5521 26.936 13.3081 26.6919C13.064 26.4479 13.064 26.0521 13.3081 25.8081L24.7411 14.375L16.875 14.375C16.5298 14.375 16.25 14.0952 16.25 13.75C16.25 13.4048 16.5298 13.125 16.875 13.125Z" fill="#141414"/>
</svg>
