<svg width="126" height="35" viewBox="0 0 126 35" fill="none" xmlns="http://www.w3.org/2000/svg">
<path d="M115.238 11.4545H117.388V14.7522L117.256 16.2123H117.388C117.617 15.8295 117.945 15.5178 118.372 15.2772C118.809 15.0256 119.296 14.8998 119.832 14.8998C120.871 14.8998 121.637 15.2061 122.129 15.8186C122.632 16.4311 122.884 17.2678 122.884 18.3287V23.2014H120.734V18.5912C120.734 18.0334 120.603 17.6123 120.341 17.328C120.078 17.0327 119.712 16.885 119.241 16.885C118.946 16.885 118.684 16.9506 118.454 17.0819C118.224 17.2022 118.027 17.3717 117.863 17.5905C117.71 17.8092 117.59 18.0662 117.502 18.3616C117.426 18.6459 117.388 18.9522 117.388 19.2803V23.2014H115.238V11.4545Z" fill="white"/>
<path d="M114.42 21.1506C114.07 21.8287 113.578 22.3866 112.944 22.8241C112.32 23.2506 111.538 23.4639 110.598 23.4639C109.974 23.4639 109.4 23.36 108.875 23.1522C108.361 22.9334 107.913 22.6327 107.53 22.2498C107.158 21.867 106.863 21.4186 106.644 20.9045C106.436 20.3795 106.332 19.8053 106.332 19.1819C106.332 18.5584 106.436 17.9842 106.644 17.4592C106.863 16.9342 107.158 16.4858 107.53 16.1139C107.913 15.7311 108.361 15.4358 108.875 15.228C109.4 15.0092 109.974 14.8998 110.598 14.8998C111.527 14.8998 112.309 15.1131 112.944 15.5397C113.578 15.9662 114.043 16.5186 114.338 17.1967L112.37 18.017C112.184 17.6452 111.943 17.3662 111.648 17.1803C111.363 16.9834 111.002 16.885 110.565 16.885C110.28 16.885 110.013 16.9397 109.761 17.0491C109.509 17.1584 109.285 17.3116 109.088 17.5084C108.902 17.7053 108.755 17.9459 108.645 18.2303C108.536 18.5147 108.481 18.8319 108.481 19.1819C108.481 19.5319 108.536 19.8491 108.645 20.1334C108.755 20.4178 108.902 20.6584 109.088 20.8553C109.285 21.0522 109.509 21.2053 109.761 21.3147C110.013 21.4241 110.28 21.4787 110.565 21.4787C111.013 21.4787 111.391 21.3803 111.697 21.1834C112.014 20.9756 112.266 20.6803 112.452 20.2975L114.42 21.1506Z" fill="white"/>
<path d="M105.699 21.2655C105.327 21.9217 104.824 22.4522 104.189 22.8569C103.566 23.2616 102.8 23.4639 101.893 23.4639C101.28 23.4639 100.711 23.36 100.186 23.1522C99.6723 22.9334 99.2238 22.6327 98.841 22.2498C98.4582 21.867 98.1574 21.4186 97.9387 20.9045C97.7309 20.3795 97.627 19.8053 97.627 19.1819C97.627 18.6022 97.7309 18.0553 97.9387 17.5412C98.1465 17.0162 98.4363 16.5623 98.8082 16.1795C99.1801 15.7858 99.6176 15.4741 100.121 15.2444C100.635 15.0147 101.198 14.8998 101.811 14.8998C102.456 14.8998 103.03 15.0092 103.533 15.228C104.036 15.4358 104.457 15.7311 104.796 16.1139C105.136 16.4858 105.393 16.9287 105.568 17.4428C105.743 17.9569 105.83 18.5147 105.83 19.1162C105.83 19.1928 105.83 19.2584 105.83 19.3131C105.819 19.3787 105.814 19.4389 105.814 19.4936C105.803 19.5483 105.797 19.6084 105.797 19.6741H99.7434C99.7871 20.0022 99.8746 20.2866 100.006 20.5272C100.148 20.7569 100.318 20.9537 100.514 21.1178C100.722 21.2709 100.946 21.3858 101.187 21.4623C101.428 21.528 101.674 21.5608 101.925 21.5608C102.418 21.5608 102.822 21.4514 103.139 21.2327C103.468 21.003 103.725 20.7186 103.911 20.3795L105.699 21.2655ZM103.746 18.1483C103.736 18.0061 103.686 17.8475 103.599 17.6725C103.522 17.4975 103.402 17.3334 103.238 17.1803C103.085 17.0272 102.888 16.9014 102.647 16.803C102.418 16.7045 102.139 16.6553 101.811 16.6553C101.351 16.6553 100.946 16.7866 100.596 17.0491C100.246 17.3116 100 17.678 99.8582 18.1483H103.746Z" fill="white"/>
<path d="M93.084 23.2014V13.5545H89.8027V11.4545H98.5801V13.5545H95.2988V23.2014H93.084Z" fill="white"/>
<path d="M89.316 21.2655C88.9441 21.9217 88.441 22.4522 87.8066 22.8569C87.1832 23.2616 86.4176 23.4639 85.5098 23.4639C84.8973 23.4639 84.3285 23.36 83.8035 23.1522C83.2895 22.9334 82.841 22.6327 82.4582 22.2498C82.0754 21.867 81.7746 21.4186 81.5559 20.9045C81.3481 20.3795 81.2441 19.8053 81.2441 19.1819C81.2441 18.6022 81.3481 18.0553 81.5559 17.5412C81.7637 17.0162 82.0535 16.5623 82.4254 16.1795C82.7973 15.7858 83.2348 15.4741 83.7379 15.2444C84.252 15.0147 84.8152 14.8998 85.4277 14.8998C86.073 14.8998 86.6473 15.0092 87.1504 15.228C87.6535 15.4358 88.0746 15.7311 88.4137 16.1139C88.7527 16.4858 89.0098 16.9287 89.1848 17.4428C89.3598 17.9569 89.4473 18.5147 89.4473 19.1162C89.4473 19.1928 89.4473 19.2584 89.4473 19.3131C89.4363 19.3787 89.4309 19.4389 89.4309 19.4936C89.4199 19.5483 89.4145 19.6084 89.4145 19.6741H83.3605C83.4043 20.0022 83.4918 20.2866 83.6231 20.5272C83.7652 20.7569 83.9348 20.9537 84.1316 21.1178C84.3395 21.2709 84.5637 21.3858 84.8043 21.4623C85.0449 21.528 85.291 21.5608 85.5426 21.5608C86.0348 21.5608 86.4395 21.4514 86.7566 21.2327C87.0848 21.003 87.3418 20.7186 87.5277 20.3795L89.316 21.2655ZM87.3637 18.1483C87.3527 18.0061 87.3035 17.8475 87.216 17.6725C87.1395 17.4975 87.0191 17.3334 86.8551 17.1803C86.702 17.0272 86.5051 16.9014 86.2645 16.803C86.0348 16.7045 85.7559 16.6553 85.4277 16.6553C84.9684 16.6553 84.5637 16.7866 84.2137 17.0491C83.8637 17.3116 83.6176 17.678 83.4754 18.1483H87.3637Z" fill="white"/>
<path d="M76.0117 15.1624H78.0297V16.278H78.1609C78.2594 16.0811 78.3906 15.9006 78.5547 15.7366C78.7188 15.5725 78.8992 15.4303 79.0961 15.31C79.3039 15.1897 79.5227 15.0967 79.7523 15.0311C79.993 14.9655 80.2281 14.9327 80.4578 14.9327C80.7422 14.9327 80.9828 14.96 81.1797 15.0147C81.3875 15.0694 81.5625 15.1405 81.7047 15.228L81.1305 17.1803C80.9992 17.1147 80.8516 17.0655 80.6875 17.0327C80.5344 16.9889 80.343 16.9671 80.1133 16.9671C79.818 16.9671 79.55 17.0272 79.3094 17.1475C79.0687 17.2569 78.8609 17.4155 78.6859 17.6233C78.5219 17.8311 78.3906 18.0772 78.2922 18.3616C78.2047 18.635 78.1609 18.9358 78.1609 19.2639V23.2014H76.0117V15.1624Z" fill="white"/>
<path d="M72.6449 22.1514H72.5137C72.2621 22.5561 71.923 22.8788 71.4965 23.1194C71.0699 23.3491 70.5832 23.4639 70.0363 23.4639C69.0191 23.4639 68.259 23.1522 67.7559 22.5288C67.2637 21.9053 67.0176 21.0741 67.0176 20.035V15.1624H69.1668V19.7725C69.1668 20.3522 69.2926 20.7842 69.5441 21.0686C69.8066 21.342 70.184 21.4788 70.6762 21.4788C70.9715 21.4788 71.2285 21.4186 71.4473 21.2983C71.677 21.167 71.8684 20.9975 72.0215 20.7897C72.1855 20.5709 72.3059 20.3194 72.3824 20.035C72.4699 19.7397 72.5137 19.428 72.5137 19.0999V15.1624H74.6629V23.2014H72.6449V22.1514Z" fill="white"/>
<path d="M61.8758 16.9999H60.4648V15.1624H61.8758V12.7014H64.025V15.1624H65.9938V16.9999H64.025V20.117C64.025 20.303 64.0414 20.478 64.0742 20.642C64.118 20.7952 64.1945 20.9264 64.3039 21.0358C64.457 21.2108 64.6758 21.2983 64.9602 21.2983C65.1461 21.2983 65.2937 21.2819 65.4031 21.2491C65.5125 21.2053 65.6164 21.1506 65.7148 21.085L66.3219 22.9717C66.0703 23.092 65.7969 23.1795 65.5016 23.2342C65.2172 23.2999 64.9 23.3327 64.55 23.3327C64.1453 23.3327 63.7789 23.2725 63.4508 23.1522C63.1336 23.0209 62.8656 22.8459 62.6469 22.6272C62.1328 22.135 61.8758 21.435 61.8758 20.5272V16.9999Z" fill="white"/>
<path d="M57.5434 22.1514H57.4121C57.1605 22.5561 56.8215 22.8788 56.3949 23.1194C55.9684 23.3491 55.4816 23.4639 54.9348 23.4639C53.9176 23.4639 53.1574 23.1522 52.6543 22.5288C52.1621 21.9053 51.916 21.0741 51.916 20.035V15.1624H54.0652V19.7725C54.0652 20.3522 54.191 20.7842 54.4426 21.0686C54.7051 21.342 55.0824 21.4788 55.5746 21.4788C55.8699 21.4788 56.127 21.4186 56.3457 21.2983C56.5754 21.167 56.7668 20.9975 56.9199 20.7897C57.084 20.5709 57.2043 20.3194 57.2809 20.035C57.3684 19.7397 57.4121 19.428 57.4121 19.0999V15.1624H59.5613V23.2014H57.5434V22.1514Z" fill="white"/>
<path d="M43.9082 11.4545H51.3566V13.5545H46.123V16.4092H50.8316V18.5092H46.123V23.2014H43.9082V11.4545Z" fill="white"/>
<path d="M23.332 35V29.1666C26.5598 29.1666 29.1654 26.5611 29.1654 23.3333H34.9987C34.9987 29.7889 29.7681 35 23.332 35Z" fill="#FFD11A"/>
<path d="M23.3327 35V29.1666C20.1049 29.1666 17.4993 26.5611 17.4993 23.3333H11.666C11.666 29.7889 16.8966 35 23.3327 35Z" fill="#FFD11A"/>
<path d="M0 23.3334H5.83333C5.83333 26.5612 8.43889 29.1667 11.6667 29.1667V35C5.23056 35 0 29.7889 0 23.3334Z" fill="#FFD11A"/>
<path d="M0 23.3334H5.83333C5.83333 20.1056 8.43889 17.5 11.6667 17.5V11.6667C5.23056 11.6667 0 16.8972 0 23.3334Z" fill="#FFD11A"/>
<path d="M11.6667 0V5.83333C8.43889 5.83333 5.83333 8.43889 5.83333 11.6667H0C0 5.23056 5.23056 0 11.6667 0Z" fill="#FFD11A"/>
<path d="M11.666 0V5.83333C14.8938 5.83333 17.4993 8.43889 17.4993 11.6667H23.3327C23.3327 5.23056 18.1021 0 11.666 0Z" fill="#FFD11A"/>
<path d="M35.0007 11.6667H29.1673C29.1673 8.43889 26.5618 5.83333 23.334 5.83333V0C29.7701 0 35.0007 5.23056 35.0007 11.6667Z" fill="#FFD11A"/>
<path d="M35.0007 11.6667H29.1673C29.1673 14.8945 26.5618 17.5 23.334 17.5V23.3334C29.7701 23.3334 35.0007 18.1222 35.0007 11.6667Z" fill="#FFD11A"/>
</svg>
