<svg width="60" height="60" viewBox="0 0 60 60" fill="none" xmlns="http://www.w3.org/2000/svg">
<path d="M40 59.9999V50C45.5333 50 50 45.5333 50 40H59.9999C59.9999 51.0666 51.0333 59.9999 40 59.9999Z" fill="#FFD11A"/>
<path d="M39.9999 59.9999V50C34.4666 50 30 45.5333 30 40H20C20 51.0666 28.9666 59.9999 39.9999 59.9999Z" fill="#FFD11A"/>
<path d="M0 39.9985H9.99995C9.99995 45.5318 14.4666 49.9985 19.9999 49.9985V59.9984C8.96663 59.9984 0 51.0652 0 39.9985Z" fill="#FFD11A"/>
<path d="M0 39.9989H9.99995C9.99995 34.4656 14.4666 29.999 19.9999 29.999V19.999C8.96663 19.999 0 28.9656 0 39.9989Z" fill="#FFD11A"/>
<path d="M19.9999 0V9.99995C14.4666 9.99995 9.99995 14.4666 9.99995 19.9999H0C0 8.96663 8.96663 0 19.9999 0Z" fill="#FFD11A"/>
<path d="M20 0V9.99995C25.5333 9.99995 30 14.4666 30 19.9999H39.9999C39.9999 8.96663 31.0333 0 20 0Z" fill="#FFD11A"/>
<path d="M59.9999 19.9999H50C50 14.4666 45.5333 9.99995 40 9.99995V0C51.0333 0 59.9999 8.96663 59.9999 19.9999Z" fill="#FFD11A"/>
<path d="M59.9999 19.999H50C50 25.5323 45.5333 29.999 40 29.999V39.9989C51.0333 39.9989 59.9999 31.0656 59.9999 19.999Z" fill="#FFD11A"/>
</svg>
