<svg width="14" height="15" viewBox="0 0 14 15" fill="none" xmlns="http://www.w3.org/2000/svg">
<path fill-rule="evenodd" clip-rule="evenodd" d="M3.875 0.625L13.25 0.625C13.4158 0.625 13.5747 0.690848 13.6919 0.808058C13.8092 0.925269 13.875 1.08424 13.875 1.25V10.625C13.875 10.9702 13.5952 11.25 13.25 11.25C12.9048 11.25 12.625 10.9702 12.625 10.625V2.75888L1.19194 14.1919C0.947864 14.436 0.552136 14.436 0.308058 14.1919C0.0639806 13.9479 0.0639806 13.5521 0.308058 13.3081L11.7411 1.875L3.875 1.875C3.52982 1.875 3.25 1.59518 3.25 1.25C3.25 0.904822 3.52982 0.625 3.875 0.625Z" fill="#FFD11A"/>
</svg>
